<svg id="Capa_1" enable-background="new 0 0 512 512" height="512" viewBox="0 0 512 512" width="512" xmlns="http://www.w3.org/2000/svg"><g><path d="m211 127.5-60 167h90v-167z" fill="#ff7e4f"/><path d="m82.5 127.5v167h128.5v-167h-29.25l-19.625 15-19.625-15z" fill="#ff9457"/><path d="m142.5 127.5h39.25v60h-39.25z" fill="#fff9d6"/><path d="m399.5 127.5-60 167h90v-167z" fill="#ff7e4f"/><path d="m271 127.5v167h128.5v-167h-29.25l-19.625 15-19.625-15z" fill="#ff9457"/><path d="m331 127.5h39.25v60h-39.25z" fill="#fff9d6"/><path d="m309.5 399.5h105v75h-45z" fill="#415ba3"/><path d="m399.5 399.5h30v105h-30z" fill="#d4e2ff"/><path d="m67.5 399.5h302v75h-302z" fill="#6262d1"/><path d="m429.5 279.5h-362v150h362c41.421 0 75-33.579 75-75s-33.579-75-75-75z" fill="#a0b4de"/><path d="m429.5 309.5h-30v90h30c24.853 0 45-20.147 45-45s-20.147-45-45-45z" fill="#fff1a0"/><path d="m444.5 354.5c0-24.853-20.147-45-45-45h-332v90h332c24.853 0 45-20.147 45-45z" fill="#fff9d6"/><g fill="#8b9bbd"><circle cx="169.25" cy="354.5" r="15"/><circle cx="256" cy="354.5" r="15"/><circle cx="342.75" cy="354.5" r="15"/><circle cx="429.5" cy="354.5" r="15"/><path d="m37.5 97.5 60-60v-30h-30z"/></g><path d="m67.5 97.5-60-60v-30h60z" fill="#a0b4de"/><path d="m67.5 504.5-45-233.5 45-233.5h30v467z" fill="#b5cdff"/><path d="m7.5 37.5h60v467h-60z" fill="#d4e2ff"/><circle cx="67.5" cy="67.5" r="7.5"/><circle cx="67.5" cy="97.5" r="7.5"/><path d="m512 354.5c0-42.961-33.013-78.34-75-82.144v-144.856c0-4.142-3.358-7.5-7.5-7.5h-158.5c-4.142 0-7.5 3.358-7.5 7.5v144.5h-15v-144.5c0-4.142-3.358-7.5-7.5-7.5h-136v-112.5c0-4.142-3.358-7.5-7.5-7.5h-90c-4.142 0-7.5 3.358-7.5 7.5v497c0 4.142 3.358 7.5 7.5 7.5h90c4.142 0 7.5-3.358 7.5-7.5v-22.5h287v22.5c0 4.142 3.358 7.5 7.5 7.5h30c4.142 0 7.5-3.358 7.5-7.5v-67.856c41.987-3.804 75-39.183 75-82.144zm-173.5-219.5h24.25v45h-24.25zm-60 0h45v52.5c0 4.142 3.358 7.5 7.5 7.5h39.25c4.142 0 7.5-3.358 7.5-7.5v-52.5h44.25v137h-143.5zm-128.5 0h24.25v45h-24.25zm-15 0v52.5c0 4.142 3.358 7.5 7.5 7.5h39.25c4.142 0 7.5-3.358 7.5-7.5v-52.5h44.25v137h-128.5v-137zm-45-120v15h-75v-15zm0 482h-75v-452h75zm15-30v-30h287v30zm302 30v-60h15v60zm22.5-75h-324.5v-15h49.25c4.142 0 7.5-3.358 7.5-7.5s-3.358-7.5-7.5-7.5h-49.25v-75h324.5c20.678 0 37.5 16.822 37.5 37.5s-16.822 37.5-37.5 37.5h-245.25c-4.142 0-7.5 3.358-7.5 7.5s3.358 7.5 7.5 7.5h245.25c28.949 0 52.5-23.551 52.5-52.5s-23.551-52.5-52.5-52.5h-324.5v-15h324.5c37.22 0 67.5 30.28 67.5 67.5s-30.28 67.5-67.5 67.5z"/><path d="m191.75 354.5c0-12.407-10.093-22.5-22.5-22.5s-22.5 10.093-22.5 22.5 10.093 22.5 22.5 22.5 22.5-10.093 22.5-22.5zm-22.5 7.5c-4.136 0-7.5-3.364-7.5-7.5s3.364-7.5 7.5-7.5 7.5 3.364 7.5 7.5-3.364 7.5-7.5 7.5z"/><path d="m256 377c12.407 0 22.5-10.093 22.5-22.5s-10.093-22.5-22.5-22.5-22.5 10.093-22.5 22.5 10.093 22.5 22.5 22.5zm0-30c4.136 0 7.5 3.364 7.5 7.5s-3.364 7.5-7.5 7.5-7.5-3.364-7.5-7.5 3.364-7.5 7.5-7.5z"/><path d="m342.75 377c12.407 0 22.5-10.093 22.5-22.5s-10.093-22.5-22.5-22.5-22.5 10.093-22.5 22.5 10.093 22.5 22.5 22.5zm0-30c4.136 0 7.5 3.364 7.5 7.5s-3.364 7.5-7.5 7.5-7.5-3.364-7.5-7.5 3.364-7.5 7.5-7.5z"/><path d="m429.5 377c12.407 0 22.5-10.093 22.5-22.5s-10.093-22.5-22.5-22.5-22.5 10.093-22.5 22.5 10.093 22.5 22.5 22.5zm0-30c4.136 0 7.5 3.364 7.5 7.5s-3.364 7.5-7.5 7.5-7.5-3.364-7.5-7.5 3.364-7.5 7.5-7.5z"/><circle cx="67.5" cy="67.5" r="7.5"/><circle cx="67.5" cy="97.5" r="7.5"/><path d="m512 354.5c0-42.961-33.013-78.34-75-82.144v-144.856c0-4.142-3.358-7.5-7.5-7.5h-158.5c-4.142 0-7.5 3.358-7.5 7.5v144.5h-15v-144.5c0-4.142-3.358-7.5-7.5-7.5h-136v-112.5c0-4.142-3.358-7.5-7.5-7.5h-90c-4.142 0-7.5 3.358-7.5 7.5v497c0 4.142 3.358 7.5 7.5 7.5h90c4.142 0 7.5-3.358 7.5-7.5v-22.5h287v22.5c0 4.142 3.358 7.5 7.5 7.5h30c4.142 0 7.5-3.358 7.5-7.5v-67.856c41.987-3.804 75-39.183 75-82.144zm-173.5-219.5h24.25v45h-24.25zm-60 0h45v52.5c0 4.142 3.358 7.5 7.5 7.5h39.25c4.142 0 7.5-3.358 7.5-7.5v-52.5h44.25v137h-143.5zm-128.5 0h24.25v45h-24.25zm-15 0v52.5c0 4.142 3.358 7.5 7.5 7.5h39.25c4.142 0 7.5-3.358 7.5-7.5v-52.5h44.25v137h-128.5v-137zm-45-120v15h-75v-15zm0 482h-75v-452h75zm15-30v-30h287v30zm302 30v-60h15v60zm22.5-75h-324.5v-15h49.25c4.142 0 7.5-3.358 7.5-7.5s-3.358-7.5-7.5-7.5h-49.25v-75h324.5c20.678 0 37.5 16.822 37.5 37.5s-16.822 37.5-37.5 37.5h-245.25c-4.142 0-7.5 3.358-7.5 7.5s3.358 7.5 7.5 7.5h245.25c28.949 0 52.5-23.551 52.5-52.5s-23.551-52.5-52.5-52.5h-324.5v-15h324.5c37.22 0 67.5 30.28 67.5 67.5s-30.28 67.5-67.5 67.5z"/><path d="m191.75 354.5c0-12.407-10.093-22.5-22.5-22.5s-22.5 10.093-22.5 22.5 10.093 22.5 22.5 22.5 22.5-10.093 22.5-22.5zm-22.5 7.5c-4.136 0-7.5-3.364-7.5-7.5s3.364-7.5 7.5-7.5 7.5 3.364 7.5 7.5-3.364 7.5-7.5 7.5z"/><path d="m256 377c12.407 0 22.5-10.093 22.5-22.5s-10.093-22.5-22.5-22.5-22.5 10.093-22.5 22.5 10.093 22.5 22.5 22.5zm0-30c4.136 0 7.5 3.364 7.5 7.5s-3.364 7.5-7.5 7.5-7.5-3.364-7.5-7.5 3.364-7.5 7.5-7.5z"/><path d="m342.75 377c12.407 0 22.5-10.093 22.5-22.5s-10.093-22.5-22.5-22.5-22.5 10.093-22.5 22.5 10.093 22.5 22.5 22.5zm0-30c4.136 0 7.5 3.364 7.5 7.5s-3.364 7.5-7.5 7.5-7.5-3.364-7.5-7.5 3.364-7.5 7.5-7.5z"/><path d="m429.5 377c12.407 0 22.5-10.093 22.5-22.5s-10.093-22.5-22.5-22.5-22.5 10.093-22.5 22.5 10.093 22.5 22.5 22.5zm0-30c4.136 0 7.5 3.364 7.5 7.5s-3.364 7.5-7.5 7.5-7.5-3.364-7.5-7.5 3.364-7.5 7.5-7.5z"/></g></svg>